<svg width="32" height="32" viewBox="0 0 32 32" fill="none" xmlns="http://www.w3.org/2000/svg">
<g clip-path="url(#clip0_315_2)">
<rect x="1" y="1" width="30" height="30" rx="5" fill="#C5C5C5"/>
<path d="M11.744 23.24C10.48 23.24 9.312 23.032 8.24 22.616C7.184 22.184 6.264 21.584 5.48 20.816C4.696 20.032 4.088 19.112 3.656 18.056C3.24 16.984 3.032 15.808 3.032 14.528C3.032 13.28 3.256 12.128 3.704 11.072C4.152 10.016 4.768 9.104 5.552 8.336C6.352 7.552 7.288 6.944 8.36 6.512C9.448 6.08 10.632 5.864 11.912 5.864C12.712 5.864 13.496 5.968 14.264 6.176C15.032 6.384 15.744 6.696 16.4 7.112C17.072 7.512 17.648 7.992 18.128 8.552L15.632 11.408C15.296 11.056 14.936 10.752 14.552 10.496C14.184 10.224 13.776 10.016 13.328 9.872C12.88 9.728 12.4 9.656 11.888 9.656C11.248 9.656 10.64 9.776 10.064 10.016C9.504 10.24 9.008 10.568 8.576 11C8.16 11.416 7.832 11.928 7.592 12.536C7.352 13.144 7.232 13.824 7.232 14.576C7.232 15.312 7.352 15.984 7.592 16.592C7.832 17.184 8.168 17.696 8.6 18.128C9.032 18.56 9.552 18.888 10.16 19.112C10.784 19.336 11.472 19.448 12.224 19.448C12.736 19.448 13.224 19.376 13.688 19.232C14.152 19.088 14.576 18.896 14.96 18.656C15.36 18.4 15.712 18.112 16.016 17.792L17.984 20.912C17.584 21.36 17.048 21.76 16.376 22.112C15.72 22.464 14.984 22.744 14.168 22.952C13.368 23.144 12.56 23.24 11.744 23.24Z" fill="#646CFF"/>
<path d="M20.76 30V16.8H15.768V13.2H29.952V16.8H24.84V30H20.76Z" fill="#646CFF"/>
</g>
<defs>
<clipPath id="clip0_315_2">
<rect width="32" height="32" fill="white"/>
</clipPath>
</defs>
</svg>
